<?xml version="1.0" encoding="UTF-8"?>
<svg width="558px" height="377px" viewBox="0 0 558 377" version="1.1" xmlns="http://www.w3.org/2000/svg" xmlns:xlink="http://www.w3.org/1999/xlink">
    <!-- Generator: Sketch 64 (93537) - https://sketch.com -->
    <title>Artboard</title>
    <desc>Created with Sketch.</desc>
    <defs>
        <linearGradient x1="49.9992867%" y1="100.009217%" x2="49.9992867%" y2="-2.61975384e-15%" id="linearGradient-1">
            <stop stop-color="#808080" stop-opacity="0.25" offset="0%"></stop>
            <stop stop-color="#808080" stop-opacity="0.12" offset="54%"></stop>
            <stop stop-color="#808080" stop-opacity="0.1" offset="100%"></stop>
        </linearGradient>
    </defs>
    <g id="Artboard" stroke="none" strokeWidth="1" fill="none" fillRule="evenodd">
        <g id="coding" transform="translate(79.000000, 9.000000)">
            <rect id="Rectangle" fill="#63B3ED" fillRule="nonzero" opacity="0.2" x="339.037006" y="125.779647" width="23.086998" height="12.0001783"></rect>
            <rect id="Rectangle" fill="#63B3ED" fillRule="nonzero" opacity="0.2" x="340.812929" y="140.446532" width="23.086998" height="12.0001783"></rect>
            <rect id="Rectangle" fill="#63B3ED" fillRule="nonzero" opacity="0.2" x="321.721757" y="38.6672413" width="23.086998" height="12.0001783"></rect>
            <rect id="Rectangle" fill="#63B3ED" fillRule="nonzero" opacity="0.2" x="338.149044" y="52.4452239" width="23.086998" height="12.0001783"></rect>
            <rect id="Rectangle" fill="#63B3ED" fillRule="nonzero" opacity="0.2" x="293.750971" y="39.5561434" width="23.086998" height="12.0001783"></rect>
            <rect id="Rectangle" fill="#63B3ED" fillRule="nonzero" opacity="0.2" x="367.895753" y="66.2232064" width="23.086998" height="12.0001783"></rect>
            <rect id="Rectangle" fill="#63B3ED" fillRule="nonzero" opacity="0.2" x="339.924967" y="67.1121085" width="23.086998" height="12.0001783"></rect>
            <rect id="Rectangle" fill="#63B3ED" fillRule="nonzero" opacity="0.2" x="310.178258" y="53.334126" width="23.086998" height="12.0001783"></rect>
            <rect id="Rectangle" fill="#63B3ED" fillRule="nonzero" opacity="0.2" x="366.563811" y="158.669025" width="23.086998" height="12.0001783"></rect>
            <rect id="Rectangle" fill="#63B3ED" fillRule="nonzero" opacity="0.2" x="338.593025" y="159.557927" width="23.086998" height="12.0001783"></rect>
            <path d="M58.0504806,122.66849 C58.0504806,122.66849 90.5898284,155.242307 72.2223456,203.558581 C53.8548627,251.874854 103.705019,332.289383 103.705019,332.289383 C103.705019,332.289383 103.172242,332.209382 102.182165,332.036046 C35.3541856,320.226981 2.14886674,243.714733 39.3278132,186.891666 C53.1267343,165.740241 64.4660022,140.953206 58.0504806,122.66849 Z" id="Path" fill="#63B3ED" fillRule="nonzero"></path>
            <path d="M58.0504806,122.66849 C58.0504806,122.66849 76.4179635,162.597972 58.0504806,195.167345 C39.6829978,227.736718 54.9026572,319.169188 103.709459,332.289383" id="Path" stroke="#535461" strokeWidth="1.49843497"></path>
            <path d="M0.0932359536,254.41267 C0.0932359536,254.41267 37.2233445,248.492582 40.6064777,281.804188 C43.9896109,315.115794 112.007459,319.733641 112.007459,319.733641 C112.007459,319.733641 111.563478,320.035867 110.733234,320.582542 C54.5741115,357.471979 0.89240127,344.089558 8.98617,295.08883 C11.9919196,276.870781 11.7432903,258.572732 0.0932359536,254.41267 Z" id="Path" fill="#63B3ED" fillRule="nonzero"></path>
            <path d="M0.0932359536,254.41267 C0.0932359536,254.41267 37.2233445,248.492582 40.6064777,281.804188 C43.9896109,315.115794 112.007459,319.733641 112.007459,319.733641 C112.007459,319.733641 111.563478,320.035867 110.733234,320.582542 C54.5741115,357.471979 0.89240127,344.089558 8.98617,295.08883 C11.9919196,276.870781 11.7432903,258.572732 0.0932359536,254.41267 Z" id="Path" fill="#F5F5F5" fillRule="nonzero" opacity="0.2"></path>
            <path d="M0.0932359536,254.41267 C0.0932359536,254.41267 28.9120252,260.746097 26.5456079,286.977598 C24.1791906,313.209099 69.3453504,344.671789 112.007459,319.733641" id="Path" stroke="#535461" strokeWidth="1.49843497"></path>
            <rect id="Rectangle" fill="#63B3ED" fillRule="nonzero" opacity="0.2" x="0.279707861" y="126.224098" width="23.086998" height="12.0001783"></rect>
            <rect id="Rectangle" fill="#63B3ED" fillRule="nonzero" opacity="0.2" x="16.7069949" y="140.002081" width="23.086998" height="12.0001783"></rect>
            <rect id="Rectangle" fill="#63B3ED" fillRule="nonzero" opacity="0.2" x="141.46558" y="0" width="23.086998" height="12.0001783"></rect>
            <rect id="Rectangle" fill="#63B3ED" fillRule="nonzero" opacity="0.2" x="323.49768" y="221.336623" width="23.086998" height="12.0001783"></rect>
            <rect id="Rectangle" fill="#63B3ED" fillRule="nonzero" opacity="0.2" x="18.4829178" y="154.668965" width="23.086998" height="12.0001783"></rect>
            <rect id="Rectangle" fill="#63B3ED" fillRule="nonzero" opacity="0.2" x="157.892867" y="13.7779825" width="23.086998" height="12.0001783"></rect>
            <rect id="Rectangle" fill="#63B3ED" fillRule="nonzero" opacity="0.2" x="73.5365285" y="95.1125247" width="23.086998" height="12.0001783"></rect>
            <rect id="Rectangle" fill="#63B3ED" fillRule="nonzero" opacity="0.2" x="89.9638156" y="108.890507" width="23.086998" height="12.0001783"></rect>
            <rect id="Rectangle" fill="#63B3ED" fillRule="nonzero" opacity="0.2" x="133.917908" y="101.334839" width="23.086998" height="12.0001783"></rect>
            <rect id="Rectangle" fill="#63B3ED" fillRule="nonzero" opacity="0.2" x="91.7397385" y="123.557392" width="23.086998" height="12.0001783"></rect>
            <rect id="Rectangle" fill="#63B3ED" fillRule="nonzero" opacity="0.2" x="354.576331" y="221.336623" width="23.086998" height="12.0001783"></rect>
            <path d="M319.954714,173.82925 C318.459837,165.501145 317.543042,157.079381 317.210913,148.624431 L317.210913,148.624431 C316.606159,134.356511 307.10349,122.010952 293.475703,117.788417 C291.051568,117.041739 288.383244,116.343951 285.435212,115.717275 C259.595534,110.22386 251.745954,115.019487 250.853553,115.650608 C250.097811,114.275264 249.440548,112.847952 248.886718,111.379433 C248.84232,111.22832 248.802362,111.077206 248.757964,110.934982 C253.871998,105.475531 256.987863,98.4429174 257.59762,90.9835744 C261.908673,86.6101761 264.426044,81.3300976 264.426044,75.6455687 C264.426044,70.7566071 262.561325,66.1698723 259.298066,62.2009244 L259.298066,54.4763652 C259.298066,45.5684949 255.763173,37.0254679 249.471023,30.7266525 C243.178873,24.427837 234.644887,20.8891993 225.746443,20.8891993 L223.024841,20.8891993 C214.126397,20.8891993 205.59241,24.427837 199.30026,30.7266525 C193.00811,37.0254679 189.473217,45.5684949 189.473217,54.4763652 L189.473217,62.8009333 C186.511865,66.6276569 184.833618,70.9966107 184.833618,75.6366797 C184.833618,81.2012068 187.248873,86.374617 191.395653,90.6946812 C191.962271,98.4272809 195.220889,105.71582 200.603814,111.290543 C200.785846,112.552784 200.972318,113.90836 201.15435,115.339492 L154.935956,125.112971 C154.935956,125.112971 137.114569,125.846315 125.633228,149.557778 C115.923369,169.642521 96.6013275,221.243288 90.8784159,236.603516 L90.8784159,236.603516 C89.8439408,239.38578 89.2578862,240.981359 89.2578862,240.981359 C89.2578862,240.981359 89.4487979,240.790245 89.8084223,240.461351 L89.2578862,241.959152 C89.2578862,241.959152 89.5375941,241.674703 90.0703709,241.208029 C89.262326,247.634791 89.146891,258.670511 97.5558861,260.043865 C104.6063,261.194993 122.773992,261.670556 136.497436,261.86167 L136.497436,261.86167 L137.447555,261.86167 C146.54472,261.981671 153.46638,261.981671 153.46638,261.981671 L153.46638,261.86167 L301.063334,261.86167 L301.063334,260.346091 C301.064993,258.971507 300.788612,257.610817 300.250849,256.346032 L300.45508,256.097139 C301.244912,257.141174 301.770464,258.361137 301.986814,259.652748 C301.9698,259.778373 301.946088,259.902997 301.915777,260.026087 L302.004573,259.799417 C302.039228,260.203076 302.009251,260.609686 301.915777,261.003879 C301.915777,261.003879 320.851555,212.163153 320.647324,182.998275 C320.701667,179.927026 320.469794,176.857395 319.954714,173.82925 L319.954714,173.82925 Z M201.922437,121.93959 C201.677873,120.546334 201.520692,119.139116 201.451817,117.726194 C201.451817,117.726194 201.451817,117.699527 201.451817,117.686193 C201.61609,119.059547 201.775923,120.481791 201.922437,121.93959 Z M144.551246,226.847816 L144.551246,238.487989 L137.269962,240.048012 L144.551246,226.847816 Z" id="Shape" fill="url(#linearGradient-1)" fillRule="nonzero"></path>
            <path d="M223.637534,25.5870469 L223.637534,25.5870469 C242.167584,25.5870469 257.189158,40.6245333 257.189158,59.1742128 L257.189158,73.5033146 L190.08591,73.5033146 L190.08591,59.1742128 C190.08591,40.6245333 205.107484,25.5870469 223.637534,25.5870469 Z" id="Path" fill="#E14B5A" fillRule="nonzero"></path>
            <ellipse id="Oval" fill="#E14B5A" fillRule="nonzero" cx="223.872844" cy="78.2011622" rx="38.2445002" ry="26.3070576"></ellipse>
            <path d="M199.356228,103.685985 C199.356228,103.685985 207.347881,145.495496 199.356228,156.771219 C191.364575,168.046942 223.775168,172.50923 223.775168,172.50923 L257.322352,160.295716 L262.015229,130.228602 C262.015229,130.228602 241.592115,118.71732 245.823251,95.463641 L199.356228,103.685985 Z" id="Path" fill="#F7C4A7" fillRule="nonzero"></path>
            <path d="M298.372811,244.621413 C298.372811,244.621413 300.486159,253.781549 288.987058,255.426018 C282.197361,256.425863 275.29235,256.343359 268.528426,255.18157 L265.993296,232.172339 L292.743135,232.172339 L298.372811,244.621413 Z" id="Path" fill="#F7C4A7" fillRule="nonzero"></path>
            <path d="M95.322663,232.896795 C95.322663,232.896795 90.2435234,253.559324 101.742624,255.426018 C113.241725,257.292713 155.464293,257.306046 155.464293,257.306046 L155.464293,232.861239 L136.346483,236.950188 L118.400781,219.723265 L95.322663,232.896795 Z" id="Path" fill="#F7C4A7" fillRule="nonzero"></path>
            <path d="M201.824761,117.192853 L156.889471,126.704105 C156.889471,126.704105 139.760694,127.410782 128.732213,150.193343 C117.703732,172.975904 93.7687304,238.043538 93.7687304,238.043538 C93.7687304,238.043538 114.191844,217.372119 138.117966,239.452448 L154.074633,210.563129 L150.553866,256.368255 L274.19362,256.368255 L274.19362,234.7546 C274.19362,234.7546 300.00222,248.612584 298.128621,256.36381 C298.128621,256.36381 320.216663,199.394074 315.44387,173.504801 C314.007117,165.501253 313.125926,157.407687 312.806624,149.282219 L312.806624,149.282219 C312.229072,135.569138 303.094296,123.703418 289.994894,119.650667 C287.668435,118.935101 285.111106,118.26398 282.269629,117.663971 C255.7551,112.028332 248.971075,117.663971 248.971075,117.663971 C248.971075,117.663971 243.834218,134.393108 243.927454,141.975443 C244.042889,151.722255 230.084134,158.184573 230.084134,158.184573 C230.084134,158.184573 209.434591,153.251166 208.497791,149.259996 C207.560992,145.268826 200.173152,121.8907 201.824761,117.192853 Z" id="Path" fill="#000000" fillRule="nonzero" opacity="0.1"></path>
            <path d="M201.824761,116.255061 L156.889471,125.766314 C156.889471,125.766314 139.760694,126.472991 128.732213,149.255552 C117.703732,172.038112 93.7642906,237.114635 93.7642906,237.114635 C93.7642906,237.114635 114.187404,216.443217 138.113526,238.523545 L154.070193,209.634227 L150.549426,255.426018 L274.19362,255.426018 L274.19362,233.816808 C274.19362,233.816808 300.00222,247.674792 298.128621,255.426018 C298.128621,255.426018 320.216663,198.456283 315.44387,172.567009 C314.007117,164.563462 313.125926,156.469895 312.806624,148.344427 L312.806624,148.344427 C312.229072,134.631346 303.094296,122.765627 289.994894,118.712875 C287.668435,117.997309 285.111106,117.326188 282.269629,116.726179 C255.7551,111.09054 248.971075,116.726179 248.971075,116.726179 C248.971075,116.726179 243.834218,133.455317 243.927454,141.037652 C244.042889,150.784463 230.084134,157.246781 230.084134,157.246781 C230.084134,157.246781 209.434591,152.313375 208.497791,148.322204 C207.560992,144.331034 200.173152,120.952909 201.824761,116.255061 Z" id="Path" fill="#575988" fillRule="nonzero"></path>
            <path d="M247.741248,114.259476 C245.853711,108.909908 245.430614,103.152152 246.515861,97.5836725 L200.048838,105.801572 C200.048838,105.801572 200.719249,109.31718 201.478456,114.583925 C207.5459,120.886582 215.931424,124.420228 224.674969,124.358896 C233.418515,124.297564 241.753749,120.646631 247.732368,114.259476 L247.741248,114.259476 Z" id="Path" fill="#000000" fillRule="nonzero" opacity="0.1"></path>
            <path d="M255.666304,90.2991198 C255.59049,107.737896 241.558798,121.893785 224.139587,122.104886 C206.720376,122.315987 192.350466,108.504293 191.852953,91.0724646 C191.852953,90.814683 191.852953,90.5569014 191.852953,90.2991198 C191.849992,78.0956153 198.79119,66.9562041 209.740937,61.5920265 C210.696976,61.1238714 211.679653,60.7031244 212.688969,60.3297855 C217.938561,58.3979529 223.60088,57.8709526 229.116256,58.8008739 L229.116256,58.8008739 C243.667275,61.2812491 254.61582,73.434671 255.581948,88.1790883 C255.638185,88.8813209 255.666304,89.5879981 255.666304,90.2991198 Z" id="Path" fill="#F7C4A7" fillRule="nonzero"></path>
            <g id="Group" opacity="0.1" transform="translate(191.799676, 59.111990)" fill="#000000" fillRule="nonzero">
                <path d="M20.8404555,1.96891815 L20.8848536,1.94225109 C19.8755374,2.31558997 18.89286,2.73633696 17.9368215,3.20449207 C6.98707382,8.56866965 0.0458762354,19.7080809 0.0488369331,31.9115854 C0.0488369331,32.169367 0.0488369331,32.4271486 0.0488369331,32.6849302 C1.04098969,32.6580842 2.0165116,32.4234082 2.9125136,31.9960311 C10.691056,28.3604215 15.3439741,17.2402562 17.1909339,9.4845854 C17.856905,6.70676634 18.4829178,3.57783095 20.8404555,1.96891815 Z" id="Path"></path>
                <path d="M45.2638355,2.86226476 C42.738095,1.70071491 40.0704992,0.877322437 37.3298999,0.413339476 C39.5775197,0.931067893 41.5846767,2.19333005 43.0261727,3.99561494 C43.73262,4.95738251 44.3186065,6.00223007 44.7710169,7.10677229 C36.1759657,3.34471308 26.3647313,3.54780712 17.9323817,7.6623361 C19.9347348,12.057957 26.1460253,14.4535481 30.2928053,16.0580164 C34.8332482,17.8121166 39.4210491,19.4165849 44.056208,20.8714213 L39.953826,17.5380384 L49.2197039,19.0136159 C49.31942,17.1676052 49.1001311,15.3182145 48.571492,13.546868 C50.3474149,14.9780004 52.7005128,15.4580075 54.6273892,16.6580253 C58.2369525,18.9380592 59.7420472,23.3247911 61.7088818,27.1248476 C62.2283393,28.1293069 62.8410327,29.1559889 63.777832,29.7915539 C63.0062617,18.0957061 55.9011199,7.76101597 45.2638355,2.86226476 L45.2638355,2.86226476 Z" id="Path"></path>
            </g>
            <path d="M212.640131,60.3564526 L212.684529,60.3297855 C211.675213,60.7031244 210.692536,61.1238714 209.736497,61.5920265 C198.78675,66.9562041 191.845552,78.0956153 191.848513,90.2991198 C191.848513,90.5569014 191.848513,90.814683 191.848513,91.0724646 C192.840666,91.0456187 193.816187,90.8109426 194.712189,90.3835655 C202.490732,86.7479559 207.14365,75.6277906 208.99061,67.8721198 C209.656581,65.1120788 210.282594,61.9698099 212.640131,60.3564526 Z" id="Path" fill="#632652" fillRule="nonzero"></path>
            <path d="M237.063511,61.2542437 C234.537771,60.0926938 231.870175,59.2693014 229.129576,58.8053184 C231.377196,59.3230468 233.384353,60.585309 234.825849,62.3875939 C235.532296,63.3493614 236.118282,64.394209 236.570693,65.4987512 C227.975642,61.736692 218.164407,61.939786 209.732058,66.054315 C211.734411,70.4499359 217.945701,72.8455271 222.092481,74.4499954 C226.632924,76.2040955 231.220725,77.8085638 235.855884,79.2634002 L231.753502,75.9300173 L241.01938,77.4055948 C241.119096,75.5595841 240.899807,73.7101934 240.371168,71.9388469 C242.147091,73.3699793 244.500189,73.8499864 246.427065,75.0500043 C250.036628,77.3300382 251.541723,81.71677 253.508558,85.5168265 C254.028015,86.5212859 254.640709,87.5479678 255.577508,88.1835328 C254.805938,76.487685 247.700796,66.1529949 237.063511,61.2542437 Z" id="Path" fill="#632652" fillRule="nonzero"></path>
            <path d="M188.207872,85.0323748 C188.207872,85.0323748 221.062446,44.1428783 259.071636,85.0323748 L255.786179,75.8722387 C255.786179,75.8722387 237.951473,49.8007401 225.284703,55.4274904 C212.617932,61.0542407 200.177592,65.0587447 200.177592,65.0587447 L188.207872,85.0323748 Z" id="Path" fill="#000000" fillRule="nonzero" opacity="0.1"></path>
            <path d="M188.207872,84.3079196 C188.207872,84.3079196 221.062446,43.4184231 259.071636,84.3079196 L255.786179,75.1477835 C255.786179,75.1477835 237.951473,49.0762849 225.284703,54.7030352 C212.617932,60.3297855 200.177592,64.3342895 200.177592,64.3342895 L188.207872,84.3079196 Z" id="Path" fill="#E14B5A" fillRule="nonzero"></path>
            <path d="M161.222723,172.393673 C161.222723,172.393673 154.185628,191.185064 164.037561,208.096426 C173.889493,225.007788 155.357737,232.056782 155.357737,232.056782" id="Path" fill="#000000" fillRule="nonzero" opacity="0.1"></path>
            <path d="M275.259174,155.482311 C275.259174,155.482311 287.459764,170.984763 279.481431,184.842747 C271.503097,198.700731 271.973716,232.056782 271.973716,232.056782" id="Path" fill="#000000" fillRule="nonzero" opacity="0.1"></path>
            <path d="M150.429551,245.914766 L286.052345,245.914766 C292.273165,245.914766 297.316136,250.963079 297.316136,257.190489 L297.316136,257.190489 L139.1702,257.190489 L139.1702,257.190489 C139.1702,250.964814 144.210465,245.91722 150.429551,245.914766 Z" id="Path" fill="#535461" fillRule="nonzero"></path>
            <path d="M164.228472,168.398058 L272.257864,168.398058 C276.850153,168.398058 281.254355,170.224271 284.501594,173.47495 C287.748833,176.725628 289.573113,181.134495 289.573113,185.731649 L289.573113,248.497026 L146.913224,248.497026 L146.913224,185.731649 C146.913224,176.158571 154.665525,168.398058 164.228472,168.398058 Z" id="Path" fill="#535461" fillRule="nonzero"></path>
            <ellipse id="Oval" fill="#FFFFFF" fillRule="nonzero" cx="218.123293" cy="211.972039" rx="8.44895332" ry="8.45790348"></ellipse>
            <path d="M190.08591,65.8676456 C190.08591,65.8676456 222.372189,33.5649433 257.193598,65.2765257" id="Path" stroke="#000000" strokeWidth="0.749217484" opacity="0.1"></path>
            <rect id="Rectangle" fill="#6A5C99" fillRule="nonzero" x="262.108464" y="63.8098372" width="3.24105934" height="18.395829"></rect>
            <path d="M257.784092,75.7122363 L257.784092,75.7122363 C263.953419,75.7122363 268.954647,80.7187622 268.954647,86.8946247 L268.954647,87.6146354 C268.954647,93.790498 263.953419,98.7970239 257.784092,98.7970239 L257.784092,98.7970239 L257.784092,75.7122363 Z" id="Path" fill="#FFD037" fillRule="nonzero"></path>
            <rect id="Rectangle" fill="#6A5C99" fillRule="nonzero" x="255.621906" y="74.6322203" width="5.04362111" height="25.2492641" rx="2.52181055"></rect>
            <rect id="Rectangle" fill="#6A5C99" fillRule="nonzero" transform="translate(183.217528, 73.367757) rotate(-180.000000) translate(-183.217528, -73.367757) " x="181.596999" y="64.1698426" width="3.24105934" height="18.395829"></rect>
            <path d="M177.991875,76.0722417 L177.991875,76.0722417 C184.161202,76.0722417 189.16243,81.0787675 189.16243,87.2546301 L189.16243,87.9746408 C189.16243,90.9403946 187.985536,93.7846789 185.89065,95.8817835 C183.795765,97.9788881 180.954491,99.1570292 177.991875,99.1570292 L177.991875,99.1570292 L177.991875,76.0722417 Z" id="Path" fill="#FFD037" fillRule="nonzero" transform="translate(183.577153, 87.614635) rotate(180.000000) translate(-183.577153, -87.614635) "></path>
            <rect id="Rectangle" fill="#6A5C99" fillRule="nonzero" transform="translate(188.802806, 87.612413) rotate(-180.000000) translate(-188.802806, -87.612413) " x="186.280995" y="74.9877811" width="5.04362111" height="25.2492641" rx="2.52181055"></rect>
            <path d="M261.726641,44.1473228 C257.335672,35.0094092 247.772327,23.9603561 227.158301,23.0758985 L227.158301,23.0492314 L226.909672,23.0492314 L226.909672,23.0492314 L219.606189,23.3959033 L219.606189,23.4314593 C199.129798,24.3736956 189.610851,35.3827481 185.233201,44.4895501 C182.317628,50.6631694 180.769779,57.3948048 180.695718,64.2231767 L183.217528,64.1609536 L185.739339,64.1031749 C185.848145,58.0239274 187.244914,52.0370603 189.837281,46.5384694 C195.39592,35.1071884 205.625236,29.0315426 220.236642,28.4670897 L220.236642,28.4670897 L226.696561,28.1070844 L226.696561,28.1070844 C241.316847,28.6670927 251.550603,34.7516276 257.104802,46.1784641 C259.701457,51.6790993 261.10129,57.6691562 261.211623,63.7520586 L263.733434,63.8098372 L266.255245,63.8720604 C266.182685,57.0473507 264.637903,50.3189132 261.726641,44.1473228 L261.726641,44.1473228 Z" id="Path" fill="#FFD037" fillRule="nonzero"></path>
            <rect id="Rectangle" fill="#D6D6E3" fillRule="nonzero" x="32.9788887" y="257.337158" width="343.956312" height="92.4458184"></rect>
            <rect id="Rectangle" fill="#000000" fillRule="nonzero" opacity="0.1" x="32.9788887" y="263.559473" width="343.956312" height="12.0001783"></rect>
            <rect id="Rectangle" fill="#D6D6E3" fillRule="nonzero" x="9.90521011" y="256.003805" width="390.09479" height="12.0001783"></rect>
        </g>
    </g>
</svg>